PathFileType	4	(X/Y/Z)	D:\Long Term Storage\D'Arcy Smith\Coord7.trc
DataRate	CameraRate	NumFrames	NumMarkers	Units	OrigDataRate	OrigDataStartFrame	OrigNumFrames
120.00	120.00	      151	4	mm	120.00	1	      4859
Frame#	Time	M1			M2			M3			M4			
		X1	Y1	Z1	X2	Y2	Z2	X3	Y3	Z3	X4	Y4	Z4	

1	0.000	1059.45129	325.73526	554.27533	1615.57593	322.08286	665.81726							
2	0.008	1063.00867	325.30069	541.30157	1615.69910	328.25015	679.66980							
3	0.017	1066.42517	324.32742	529.64581	1615.70239	334.98456	692.78381							
4	0.025	1069.71277	323.65933	517.12415	1615.60730	342.00729	705.27759							
5	0.033	1072.82788	323.31317	502.51477	1615.71765	349.16782	716.18030							
6	0.042	1075.79480	323.29480	489.94598	1615.20325	356.42267	726.97803							
7	0.050	1079.10999	323.63934	476.43866	1614.48645	364.38492	736.19861							
8	0.058	1082.17114	324.80600	462.76730	1614.56128	373.12778	743.52411							
9	0.067	1085.22192	325.09100	450.19278	1613.81360	381.06625	750.38641							
10	0.075	1088.35205	326.90796	437.69916	1613.11951	388.57285	756.24384							
11	0.083	1090.69702	328.18533	423.44998	1612.42590	395.51334	761.28979							
12	0.092	1093.26794	330.41074	408.51764	1611.50439	402.31509	765.39722							
13	0.100	1096.02942	332.89697	396.01038	1610.93066	408.13660	768.27020							
14	0.108	1098.33801	335.92728	382.58365	1610.19690	413.47415	771.25684							
15	0.117	1100.67200	339.19772	369.73828	1609.67078	417.95215	773.18140							
16	0.125	1102.76013	342.74234	357.10562	1609.18420	421.61395	774.53046							
17	0.133	1104.72729	346.46518	344.94034	1608.65637	424.61075	775.34308							
18	0.142	1106.58496	350.29803	333.51758	1608.60974	426.53592	776.05896							
19	0.150	1107.94910	354.15894	321.20599	1608.88733	427.54391	775.89453							
20	0.158	1109.57422	358.40564	311.83255	1609.30798	427.79776	775.37903							
21	0.167	1110.77820	362.36133	302.48544	1609.75305	427.13235	774.61841							
22	0.175	1111.62756	366.17557	292.50284	1610.16650	425.74301	773.49146							
23	0.183	1112.49622	369.96011	285.85007	1610.59595	423.64307	771.63196							
24	0.192	1112.82715	373.28650	277.55902	1610.98523	420.80951	769.41980							
25	0.200	1113.28784	376.31317	273.14102	1611.41882	417.50104	766.54980							
26	0.208	1113.16260	379.10147	266.38974	1611.79578	413.57040	763.24084							
27	0.217	1113.19641	381.04803	264.68570	1612.12500	409.36902	759.47321							
28	0.225	1112.63049	382.67249	260.48395	1612.18408	405.31866	755.23376							
29	0.233	1111.98657	383.96869	258.67538	1612.08142	400.69113	750.29523							
30	0.242	1111.12366	384.57855	257.70184	1612.49683	394.54416	743.46027							
31	0.250	1109.92371	384.63873	257.41837	1612.27673	389.12415	736.77863							
32	0.258	1108.56702	384.81149	255.84976	1612.18237	383.38583	729.78705							
33	0.267	1107.63843	383.23029	260.42874	1611.96802	377.52530	721.44244							
34	0.275	1106.01123	381.54800	261.50632	1611.69177	371.47293	712.85895							
35	0.283	1104.80420	379.18619	265.29431	1611.42896	365.28903	703.52399							
36	0.292	1103.18237	376.48715	268.83093	1611.20654	359.26440	692.97327							
37	0.300	1101.70764	373.18884	273.09894	1610.58362	353.24136	682.52771							
38	0.308	1100.11523	369.33081	277.83569	1609.62952	347.30984	671.25708							
39	0.317	1098.56848	365.29834	282.02829	1608.94812	341.33691	658.78711							
40	0.325	1097.30164	360.60883	289.67133	1608.26489	335.48297	645.92902							
41	0.333	1095.77417	355.68887	295.41382	1607.58435	329.95380	631.81433							
42	0.342	1094.56494	350.72403	303.93954	1606.57092	324.92856	617.52777							
43	0.350	1093.53662	345.38040	312.03470	1605.83374	320.71503	601.67517							
44	0.358	1092.31738	340.03879	320.59442	1604.68066	316.64767	586.21051							
45	0.367	1091.31433	334.26984	330.19836	1603.62415	313.05588	569.47815							
46	0.375	1090.23096	328.92297	340.00693	1602.32336	310.55408	553.18738							
47	0.383	1089.41309	323.25931	350.68109	1600.83728	308.95673	536.36603							
48	0.392	1088.40564	317.90588	361.58377	1599.51123	308.16351	519.27020							
49	0.400	1087.40161	312.55841	373.52933	1598.13269	307.75781	502.67844							
50	0.408	1086.38904	307.71878	385.72803	1596.85278	308.02191	486.19260							
51	0.417	1085.32532	303.30585	398.64230	1595.29626	309.35587	469.58560							
52	0.425	1084.02661	299.49136	412.06799	1593.75269	311.10590	453.46658							
53	0.433	1082.62354	296.88281	426.22263	1592.18408	313.96307	437.67932							
54	0.442	1081.39026	294.93848	440.56723	1590.66138	315.67993	424.64246							
55	0.450	1079.77600	292.61823	453.82681	1589.13892	319.82907	409.39825							
56	0.458	1078.18030	292.21667	467.63937	1588.17432	323.40897	395.54425							
57	0.467	1076.40417	291.50903	482.08969	1587.18481	326.93954	383.43204							
58	0.475	1074.72534	291.46182	496.25336	1586.47949	330.55331	372.21014							
59	0.483	1072.84546	291.86740	509.99438	1586.10156	333.34793	363.71762							
60	0.492	1070.84790	292.79532	523.57306	1585.63562	337.28882	353.91907							
61	0.500	1068.53320	293.73199	537.16217	1585.96863	339.94653	347.47839							
62	0.508	1066.55237	295.78082	549.68695	1586.01831	342.63614	341.91989							
63	0.517	1064.09949	297.52570	560.90088	1586.18115	343.87210	338.85376							
64	0.525	1061.73743	299.99026	575.38245	1587.29407	345.20313	336.80920							
65	0.533	1059.03564	302.87164	586.35529	1588.21069	346.04938	335.47916							
66	0.542	1056.47681	306.57846	595.18402	1589.37012	346.16702	335.51740							
67	0.550	1053.72217	309.71756	604.91791	1590.73254	345.94492	336.67108							
68	0.558	1050.87000	313.56726	613.28217	1591.95459	345.59488	338.01117							
69	0.567	1048.07007	317.62399	620.48444	1593.42822	344.10529	341.35339							
70	0.575	1045.22266	321.37555	626.15753	1594.99451	342.23129	345.38330							
71	0.583	1042.45142	325.23682	631.18469	1596.80920	339.53961	350.52353							
72	0.592	1039.75146	328.78870	634.78009	1598.42004	336.84235	355.41379							
73	0.600	1037.07202	331.70911	637.26489	1599.83789	333.92599	361.12439							
74	0.608	1034.51050	334.23767	638.65259	1601.57507	330.66812	367.20230							
75	0.617	1032.33752	336.15234	639.63879	1603.04382	327.80899	373.77350							
76	0.625	1030.27368	337.45401	638.22302	1604.59204	324.45975	380.70926							
77	0.633	1028.58569	337.91489	636.59216	1606.25244	320.56442	388.59671							
78	0.642	1027.10986	337.68790	633.76129	1607.42468	317.02399	396.89426							
79	0.650	1026.20544	337.08005	630.23303	1609.27625	313.33640	405.55240							
80	0.658	1025.45166	335.68527	625.13873	1610.60718	309.57916	414.79739							
81	0.667	1025.17285	334.09283	619.73053	1611.89966	305.83820	424.33099							
82	0.675	1025.55444	331.91165	612.67029	1613.14417	302.70941	434.09546							
83	0.683	1026.15271	329.60486	605.14301	1614.07385	299.26538	445.30786							
84	0.692	1027.42883	327.12277	596.80707	1614.96814	296.20688	457.39874							
85	0.700	1028.88953	324.50366	587.64252	1615.94104	293.83084	470.27356							
86	0.708	1030.87463	322.10678	577.84882	1616.72888	291.96094	483.85834							
87	0.717	1033.03418	319.56598	566.34100	1617.17065	290.88620	498.12354							
88	0.725	1035.93518	317.53540	555.81287	1617.62561	290.62527	512.56219							
89	0.733	1038.87170	315.65894	542.95044	1617.99548	291.06638	526.85571							
90	0.742	1042.16589	313.76556	530.13715	1618.12744	292.18701	541.01514							
91	0.750	1045.94385	313.19403	517.71527	1618.19824	294.13034	555.94708							
92	0.758	1049.76282	312.17700	505.71829	1618.22400	296.71155	569.90906							
93	0.767	1053.56006	313.66815	488.33075	1618.23401	299.65033	583.90173							
94	0.775	1057.52185	313.88217	475.09326	1618.08386	302.75983	597.10278							
95	0.783	1062.04736	315.44720	461.46890	1618.06982	306.90067	610.15308							
96	0.792	1066.61316	317.01465	448.89954	1617.96265	310.66162	622.62610							
97	0.800	1070.97375	318.46347	435.85257	1617.92383	314.79904	634.41565							
98	0.808	1075.58459	321.07742	423.52094	1617.52234	318.55048	645.86328							
99	0.817	1080.59131	323.75259	410.20416	1617.26184	322.80341	657.17041							
100	0.825	1085.17334	327.10294	397.60562	1617.25623	326.93060	667.41150							
101	0.833	1089.91382	331.04407	384.56949	1617.10962	331.46121	677.87335							
102	0.842	1094.67749	335.43045	372.05548	1617.05774	336.15048	687.26447							
103	0.850	1099.37561	340.17615	359.57520	1617.00122	341.06161	696.60297							
104	0.858	1103.87903	345.35242	347.17245	1617.08850	346.33224	705.34070							
105	0.867	1108.43030	350.58170	335.42136	1617.68738	352.02585	712.62549							
106	0.875	1112.54126	356.43375	323.73471	1617.56531	357.46835	720.60626							
107	0.883	1116.46594	361.71802	313.20703	1617.13049	362.62833	728.97882							
108	0.892	1120.15613	367.74066	302.89645	1617.83130	369.29404	734.81970							
109	0.900	1123.24951	373.82547	292.88931	1618.13635	375.34390	740.77386							
110	0.908	1125.64380	380.05786	282.78613	1618.41309	381.10168	746.58173							
111	0.917	1127.93530	385.89755	274.50443	1618.98706	386.49542	751.33374							
112	0.925	1129.61633	391.41910	267.47531	1619.47021	392.61868	755.85303							
113	0.933	1130.67725	396.95419	260.67075	1619.74280	397.10840	760.08539							
114	0.942	1131.13123	402.41412	254.01431	1620.23425	401.18872	763.83105							
115	0.950	1131.53418	406.90167	249.21106	1621.12488	404.63058	766.58557							
116	0.958	1131.33533	410.96646	244.91058	1622.12463	407.49298	768.75031							
117	0.967	1130.67737	414.36877	241.56491	1623.03162	409.74255	770.41144							
118	0.975	1129.84668	417.55084	238.35019	1624.22607	411.27469	771.75714							
119	0.983	1128.54358	419.75812	236.48967	1625.44641	412.11252	772.44513							
120	0.992	1126.99036	421.94070	234.45029	1626.59412	412.30151	772.80426							
121	1.000	1125.52466	423.20483	233.70105	1627.78748	411.98038	772.84052							
122	1.008	1123.69434	423.96783	233.14040	1629.14478	411.17517	771.97076							
123	1.017	1121.87524	424.17188	233.08138	1630.34180	409.93903	771.16821							
124	1.025	1119.87012	423.77560	233.30223	1631.53589	408.03500	769.81189							
125	1.033	1117.78821	422.89615	233.92570	1632.72937	406.07361	767.88031							
126	1.042	1115.95190	421.33432	234.90347	1633.72253	403.53317	766.30402							
127	1.050	1113.82837	419.25314	236.56660	1634.70422	401.01947	763.71796							
128	1.058	1111.99500	416.63513	238.39085	1635.49451	398.33591	760.99646							
129	1.067	1110.03162	413.43890	241.11368	1636.08008	395.20657	757.87183							
130	1.075	1108.29224	409.62903	243.79996	1636.15894	391.52054	754.85004							
131	1.083	1106.51270	405.45612	247.23602	1636.36719	388.11548	750.83734							
132	1.092	1104.65613	400.65137	251.15344	1636.47400	384.70596	745.90454							
133	1.100	1103.03174	395.58685	255.24310	1636.19482	380.81125	740.17493							
134	1.108	1101.38293	389.42810	261.79395	1636.09900	377.22284	733.14746							
135	1.117	1099.94897	383.25702	269.00595	1635.47791	372.59293	725.87433							
136	1.125	1098.15857	376.85809	275.40607	1634.48193	367.74704	717.94250							
137	1.133	1096.36646	370.25616	282.55045	1633.38940	362.43292	708.96057							
138	1.142	1094.74133	363.23654	290.30414	1631.91479	356.73697	699.16309							
139	1.150	1093.14856	356.27643	299.19601	1630.36658	350.92517	688.34174							
140	1.158	1091.45044	349.28525	308.63089	1628.42261	345.30728	677.06152							
141	1.167	1090.04639	342.39594	318.78812	1626.38586	339.17914	664.72913							
142	1.175	1088.62073	336.05630	329.52682	1624.31982	333.50842	650.97192							
143	1.183	1087.22510	329.50656	340.83517	1621.70667	327.44604	636.75830							
144	1.192	1085.85681	323.46689	352.65500	1618.95032	321.79556	621.96320							
145	1.200	1084.57471	317.67639	364.86569	1616.13208	316.30457	606.33612							
146	1.208	1083.31006	312.58865	377.49762	1613.06689	311.41177	590.26794							
147	1.217	1082.13501	307.86679	390.15936	1609.77100	307.01843	573.75116							
148	1.225	1081.20239	303.78873	403.03070	1606.56177	303.16446	557.00659							
149	1.233	1080.22937	300.47647	415.69995	1603.06506	300.33197	540.21411							
150	1.242	1079.26147	298.58298	428.68381	1599.57605	298.17892	523.56982							
151	1.250	1078.62427	296.66919	442.29556	1596.00342	296.39963	507.38254							
